<svg width="52" height="52" viewBox="0 0 423 430" fill="none" xmlns="http://www.w3.org/2000/svg">
<path d="M190.21 16.5421C151.511 21.3761 115.07 37.4184 85.3711 62.6958C55.6722 87.9732 34.0114 121.382 23.0548 158.811C12.0982 196.24 12.3241 236.057 23.704 273.359C35.0839 310.661 57.1218 343.822 87.1049 368.762C117.088 393.701 153.709 409.331 192.461 413.726C231.212 418.121 270.403 411.09 305.21 393.499C337.424 377.22 364.58 352.551 383.862 322.167C375.134 325.939 365.998 329.142 356.495 331.705C261.313 357.374 165.559 309.235 142.622 224.184C119.688 139.144 178.238 49.3992 273.399 23.7176C246.597 15.5349 218.254 13.039 190.21 16.5421Z" stroke="currentColor" stroke-width="30"/>
</svg>
